<mxfile host="app.diagrams.net" modified="2022-09-10T18:31:19.021Z" agent="5.0 (Windows NT 10.0; Win64; x64) AppleWebKit/537.36 (KHTML, like Gecko) Chrome/105.0.0.0 Safari/537.36 Edg/105.0.1343.27" etag="6iAUYdn5BHC9OGQCI0Rp" version="20.3.0" type="github">
  <diagram id="qQjOGNZVM2u2vZWcB5vZ" name="PÃ¡gina-1">
    <mxGraphModel dx="1669" dy="1967" grid="1" gridSize="10" guides="1" tooltips="1" connect="1" arrows="1" fold="1" page="1" pageScale="1" pageWidth="827" pageHeight="1169" math="0" shadow="0">
      <root>
        <mxCell id="0" />
        <mxCell id="1" parent="0" />
        <mxCell id="HBWo0hRsCbB8HQdKFILf-60" value="1" style="text;html=1;strokeColor=none;fillColor=none;align=center;verticalAlign=middle;whiteSpace=wrap;rounded=0;" parent="1" vertex="1">
          <mxGeometry x="382" y="-140" width="30" height="20" as="geometry" />
        </mxCell>
        <mxCell id="8gEljakdv8i_XS6eazJ--30" value="Tipo de Origami" style="rounded=0;whiteSpace=wrap;html=1;fillColor=#d5e8d4;strokeColor=#82b366;" vertex="1" parent="1">
          <mxGeometry x="70" y="-838.5" width="120" height="40" as="geometry" />
        </mxCell>
        <mxCell id="8gEljakdv8i_XS6eazJ--31" value="Origami" style="rounded=0;whiteSpace=wrap;html=1;fillColor=#d5e8d4;strokeColor=#82b366;" vertex="1" parent="1">
          <mxGeometry x="340" y="-838.5" width="110" height="40" as="geometry" />
        </mxCell>
        <mxCell id="8gEljakdv8i_XS6eazJ--32" value="Estado actual" style="rounded=0;whiteSpace=wrap;html=1;" vertex="1" parent="1">
          <mxGeometry y="-362.25" width="140" height="47.5" as="geometry" />
        </mxCell>
        <mxCell id="8gEljakdv8i_XS6eazJ--33" value="" style="endArrow=none;html=1;rounded=0;entryX=1;entryY=0.5;entryDx=0;entryDy=0;exitX=0;exitY=0.5;exitDx=0;exitDy=0;" edge="1" parent="1" source="8gEljakdv8i_XS6eazJ--31" target="8gEljakdv8i_XS6eazJ--30">
          <mxGeometry width="50" height="50" relative="1" as="geometry">
            <mxPoint x="460" y="-668.5" as="sourcePoint" />
            <mxPoint x="510" y="-718.5" as="targetPoint" />
          </mxGeometry>
        </mxCell>
        <mxCell id="8gEljakdv8i_XS6eazJ--35" value="Persona" style="rounded=0;whiteSpace=wrap;html=1;" vertex="1" parent="1">
          <mxGeometry x="340" y="-182" width="120" height="30" as="geometry" />
        </mxCell>
        <mxCell id="8gEljakdv8i_XS6eazJ--36" value="" style="endArrow=none;html=1;rounded=0;exitX=0.5;exitY=1;exitDx=0;exitDy=0;entryX=0.5;entryY=0;entryDx=0;entryDy=0;" edge="1" parent="1" source="8gEljakdv8i_XS6eazJ--31" target="8gEljakdv8i_XS6eazJ--38">
          <mxGeometry width="50" height="50" relative="1" as="geometry">
            <mxPoint x="740" y="-668.5" as="sourcePoint" />
            <mxPoint x="390" y="-698.5" as="targetPoint" />
          </mxGeometry>
        </mxCell>
        <mxCell id="8gEljakdv8i_XS6eazJ--37" style="edgeStyle=orthogonalEdgeStyle;rounded=0;orthogonalLoop=1;jettySize=auto;html=1;endArrow=none;endFill=0;" edge="1" parent="1" source="8gEljakdv8i_XS6eazJ--38" target="8gEljakdv8i_XS6eazJ--60">
          <mxGeometry relative="1" as="geometry">
            <mxPoint x="510" y="-548.5" as="targetPoint" />
          </mxGeometry>
        </mxCell>
        <mxCell id="8gEljakdv8i_XS6eazJ--38" value="Tutorial&amp;nbsp; &amp;nbsp;Origami" style="rounded=0;whiteSpace=wrap;html=1;" vertex="1" parent="1">
          <mxGeometry x="335" y="-568.5" width="125" height="40" as="geometry" />
        </mxCell>
        <mxCell id="8gEljakdv8i_XS6eazJ--39" value="" style="endArrow=none;html=1;rounded=0;" edge="1" parent="1" target="8gEljakdv8i_XS6eazJ--64">
          <mxGeometry width="50" height="50" relative="1" as="geometry">
            <mxPoint x="398" y="-180" as="sourcePoint" />
            <mxPoint x="340.5" y="-318.50000000000045" as="targetPoint" />
          </mxGeometry>
        </mxCell>
        <mxCell id="8gEljakdv8i_XS6eazJ--40" value="" style="endArrow=classic;html=1;rounded=0;" edge="1" parent="1">
          <mxGeometry width="50" height="50" relative="1" as="geometry">
            <mxPoint x="235" y="-848.5" as="sourcePoint" />
            <mxPoint x="285" y="-848.5" as="targetPoint" />
          </mxGeometry>
        </mxCell>
        <mxCell id="8gEljakdv8i_XS6eazJ--41" value="" style="endArrow=classic;html=1;rounded=0;" edge="1" parent="1">
          <mxGeometry width="50" height="50" relative="1" as="geometry">
            <mxPoint x="290" y="-784.3299999999999" as="sourcePoint" />
            <mxPoint x="230" y="-784.3299999999999" as="targetPoint" />
          </mxGeometry>
        </mxCell>
        <mxCell id="8gEljakdv8i_XS6eazJ--42" value="" style="endArrow=classic;html=1;rounded=0;" edge="1" parent="1">
          <mxGeometry width="50" height="50" relative="1" as="geometry">
            <mxPoint x="414.49999999999955" y="-628.5" as="sourcePoint" />
            <mxPoint x="414.49999999999955" y="-718.5" as="targetPoint" />
          </mxGeometry>
        </mxCell>
        <mxCell id="8gEljakdv8i_XS6eazJ--43" value="tiene&amp;nbsp;" style="text;html=1;strokeColor=none;fillColor=none;align=center;verticalAlign=middle;whiteSpace=wrap;rounded=0;" vertex="1" parent="1">
          <mxGeometry x="235" y="-848.5" width="60" height="30" as="geometry" />
        </mxCell>
        <mxCell id="8gEljakdv8i_XS6eazJ--44" value="0...*" style="text;html=1;strokeColor=none;fillColor=none;align=center;verticalAlign=middle;whiteSpace=wrap;rounded=0;" vertex="1" parent="1">
          <mxGeometry x="315" y="-838.5" width="30" height="20" as="geometry" />
        </mxCell>
        <mxCell id="8gEljakdv8i_XS6eazJ--45" value="" style="endArrow=classic;html=1;rounded=0;" edge="1" parent="1">
          <mxGeometry width="50" height="50" relative="1" as="geometry">
            <mxPoint x="365" y="-708.5" as="sourcePoint" />
            <mxPoint x="365" y="-608.5" as="targetPoint" />
          </mxGeometry>
        </mxCell>
        <mxCell id="8gEljakdv8i_XS6eazJ--46" value="pertenece" style="text;html=1;strokeColor=none;fillColor=none;align=center;verticalAlign=middle;whiteSpace=wrap;rounded=0;" vertex="1" parent="1">
          <mxGeometry x="235" y="-813.5" width="60" height="20" as="geometry" />
        </mxCell>
        <mxCell id="8gEljakdv8i_XS6eazJ--47" value="1" style="text;html=1;strokeColor=none;fillColor=none;align=center;verticalAlign=middle;whiteSpace=wrap;rounded=0;" vertex="1" parent="1">
          <mxGeometry x="195" y="-813.5" width="30" height="20" as="geometry" />
        </mxCell>
        <mxCell id="8gEljakdv8i_XS6eazJ--48" value="es para" style="text;html=1;strokeColor=none;fillColor=none;align=center;verticalAlign=middle;whiteSpace=wrap;rounded=0;" vertex="1" parent="1">
          <mxGeometry x="390" y="-628.5" width="60" height="30" as="geometry" />
        </mxCell>
        <mxCell id="8gEljakdv8i_XS6eazJ--49" value="1" style="text;html=1;strokeColor=none;fillColor=none;align=center;verticalAlign=middle;whiteSpace=wrap;rounded=0;" vertex="1" parent="1">
          <mxGeometry x="350" y="-588.5" width="30" height="20" as="geometry" />
        </mxCell>
        <mxCell id="8gEljakdv8i_XS6eazJ--50" value="se puede hacer&amp;nbsp;" style="text;html=1;strokeColor=none;fillColor=none;align=center;verticalAlign=middle;whiteSpace=wrap;rounded=0;" vertex="1" parent="1">
          <mxGeometry x="330" y="-753.5" width="60" height="20" as="geometry" />
        </mxCell>
        <mxCell id="8gEljakdv8i_XS6eazJ--51" value="1" style="text;html=1;strokeColor=none;fillColor=none;align=center;verticalAlign=middle;whiteSpace=wrap;rounded=0;" vertex="1" parent="1">
          <mxGeometry x="400" y="-793.5" width="30" height="20" as="geometry" />
        </mxCell>
        <mxCell id="8gEljakdv8i_XS6eazJ--52" value="" style="endArrow=classic;html=1;rounded=0;" edge="1" parent="1">
          <mxGeometry width="50" height="50" relative="1" as="geometry">
            <mxPoint x="430" y="-215.5" as="sourcePoint" />
            <mxPoint x="430" y="-285.5" as="targetPoint" />
          </mxGeometry>
        </mxCell>
        <mxCell id="8gEljakdv8i_XS6eazJ--53" value="" style="endArrow=classic;html=1;rounded=0;" edge="1" parent="1">
          <mxGeometry width="50" height="50" relative="1" as="geometry">
            <mxPoint x="374" y="-293.50000000000045" as="sourcePoint" />
            <mxPoint x="374" y="-223.50000000000045" as="targetPoint" />
          </mxGeometry>
        </mxCell>
        <mxCell id="8gEljakdv8i_XS6eazJ--54" value="esta asociado" style="text;html=1;strokeColor=none;fillColor=none;align=center;verticalAlign=middle;whiteSpace=wrap;rounded=0;" vertex="1" parent="1">
          <mxGeometry x="305" y="-277" width="60" height="30" as="geometry" />
        </mxCell>
        <mxCell id="8gEljakdv8i_XS6eazJ--55" value="tiene&amp;nbsp;" style="text;html=1;strokeColor=none;fillColor=none;align=center;verticalAlign=middle;whiteSpace=wrap;rounded=0;" vertex="1" parent="1">
          <mxGeometry x="425" y="-275.5" width="60" height="30" as="geometry" />
        </mxCell>
        <mxCell id="8gEljakdv8i_XS6eazJ--57" value="Recurso" style="rounded=0;whiteSpace=wrap;html=1;" vertex="1" parent="1">
          <mxGeometry x="670" y="-733.5" width="120" height="40" as="geometry" />
        </mxCell>
        <mxCell id="8gEljakdv8i_XS6eazJ--58" style="edgeStyle=orthogonalEdgeStyle;rounded=0;orthogonalLoop=1;jettySize=auto;html=1;endArrow=none;endFill=0;" edge="1" parent="1" source="8gEljakdv8i_XS6eazJ--60" target="8gEljakdv8i_XS6eazJ--57">
          <mxGeometry relative="1" as="geometry" />
        </mxCell>
        <mxCell id="8gEljakdv8i_XS6eazJ--59" style="edgeStyle=orthogonalEdgeStyle;rounded=0;orthogonalLoop=1;jettySize=auto;html=1;endArrow=none;endFill=0;" edge="1" parent="1" source="8gEljakdv8i_XS6eazJ--60" target="8gEljakdv8i_XS6eazJ--97">
          <mxGeometry relative="1" as="geometry" />
        </mxCell>
        <mxCell id="8gEljakdv8i_XS6eazJ--60" value="Paso Tutorial" style="rounded=0;whiteSpace=wrap;html=1;" vertex="1" parent="1">
          <mxGeometry x="670" y="-568.5" width="120" height="40" as="geometry" />
        </mxCell>
        <mxCell id="8gEljakdv8i_XS6eazJ--61" style="edgeStyle=orthogonalEdgeStyle;rounded=0;orthogonalLoop=1;jettySize=auto;html=1;exitX=0.5;exitY=0;exitDx=0;exitDy=0;entryX=0.5;entryY=1;entryDx=0;entryDy=0;endArrow=none;endFill=0;" edge="1" parent="1" source="8gEljakdv8i_XS6eazJ--64" target="8gEljakdv8i_XS6eazJ--38">
          <mxGeometry relative="1" as="geometry" />
        </mxCell>
        <mxCell id="8gEljakdv8i_XS6eazJ--62" style="edgeStyle=orthogonalEdgeStyle;rounded=0;orthogonalLoop=1;jettySize=auto;html=1;exitX=0.5;exitY=0;exitDx=0;exitDy=0;entryX=1;entryY=1;entryDx=0;entryDy=0;endArrow=none;endFill=0;" edge="1" parent="1" source="8gEljakdv8i_XS6eazJ--64" target="8gEljakdv8i_XS6eazJ--90">
          <mxGeometry relative="1" as="geometry" />
        </mxCell>
        <mxCell id="8gEljakdv8i_XS6eazJ--63" style="edgeStyle=orthogonalEdgeStyle;rounded=0;orthogonalLoop=1;jettySize=auto;html=1;endArrow=none;endFill=0;" edge="1" parent="1" source="8gEljakdv8i_XS6eazJ--64" target="8gEljakdv8i_XS6eazJ--97">
          <mxGeometry relative="1" as="geometry" />
        </mxCell>
        <mxCell id="8gEljakdv8i_XS6eazJ--64" value="Tutorial persona" style="rounded=0;whiteSpace=wrap;html=1;" vertex="1" parent="1">
          <mxGeometry x="337.5" y="-358.5" width="120" height="40" as="geometry" />
        </mxCell>
        <mxCell id="8gEljakdv8i_XS6eazJ--66" value="0...*" style="text;html=1;strokeColor=none;fillColor=none;align=center;verticalAlign=middle;whiteSpace=wrap;rounded=0;" vertex="1" parent="1">
          <mxGeometry x="420" y="-318.5" width="30" height="20" as="geometry" />
        </mxCell>
        <mxCell id="8gEljakdv8i_XS6eazJ--67" value="" style="endArrow=classic;html=1;rounded=0;" edge="1" parent="1">
          <mxGeometry width="50" height="50" relative="1" as="geometry">
            <mxPoint x="425" y="-418.5" as="sourcePoint" />
            <mxPoint x="425" y="-488.5" as="targetPoint" />
          </mxGeometry>
        </mxCell>
        <mxCell id="8gEljakdv8i_XS6eazJ--68" value="contiene" style="text;html=1;strokeColor=none;fillColor=none;align=center;verticalAlign=middle;whiteSpace=wrap;rounded=0;" vertex="1" parent="1">
          <mxGeometry x="420" y="-468.5" width="60" height="30" as="geometry" />
        </mxCell>
        <mxCell id="8gEljakdv8i_XS6eazJ--69" value="Pertenece" style="text;html=1;strokeColor=none;fillColor=none;align=center;verticalAlign=middle;whiteSpace=wrap;rounded=0;" vertex="1" parent="1">
          <mxGeometry x="310" y="-468.5" width="60" height="30" as="geometry" />
        </mxCell>
        <mxCell id="8gEljakdv8i_XS6eazJ--70" value="" style="endArrow=classic;html=1;rounded=0;" edge="1" parent="1">
          <mxGeometry width="50" height="50" relative="1" as="geometry">
            <mxPoint x="380" y="-478.5" as="sourcePoint" />
            <mxPoint x="380" y="-408.5" as="targetPoint" />
          </mxGeometry>
        </mxCell>
        <mxCell id="8gEljakdv8i_XS6eazJ--71" value="0...*" style="text;html=1;strokeColor=none;fillColor=none;align=center;verticalAlign=middle;whiteSpace=wrap;rounded=0;" vertex="1" parent="1">
          <mxGeometry x="405" y="-528.5" width="30" height="20" as="geometry" />
        </mxCell>
        <mxCell id="8gEljakdv8i_XS6eazJ--77" value="1" style="text;html=1;strokeColor=none;fillColor=none;align=center;verticalAlign=middle;whiteSpace=wrap;rounded=0;" vertex="1" parent="1">
          <mxGeometry x="307.5" y="-548.5" width="30" height="20" as="geometry" />
        </mxCell>
        <mxCell id="8gEljakdv8i_XS6eazJ--78" value="" style="endArrow=classic;html=1;rounded=0;" edge="1" parent="1">
          <mxGeometry width="50" height="50" relative="1" as="geometry">
            <mxPoint x="557.0000000000005" y="-569.5" as="sourcePoint" />
            <mxPoint x="607.0000000000005" y="-569.5" as="targetPoint" />
          </mxGeometry>
        </mxCell>
        <mxCell id="8gEljakdv8i_XS6eazJ--79" value="" style="endArrow=classic;html=1;rounded=0;" edge="1" parent="1">
          <mxGeometry width="50" height="50" relative="1" as="geometry">
            <mxPoint x="599" y="-529.6100000000001" as="sourcePoint" />
            <mxPoint x="539" y="-529.6100000000001" as="targetPoint" />
          </mxGeometry>
        </mxCell>
        <mxCell id="8gEljakdv8i_XS6eazJ--80" value="tiene&amp;nbsp;" style="text;html=1;strokeColor=none;fillColor=none;align=center;verticalAlign=middle;whiteSpace=wrap;rounded=0;" vertex="1" parent="1">
          <mxGeometry x="544" y="-598.5" width="60" height="30" as="geometry" />
        </mxCell>
        <mxCell id="8gEljakdv8i_XS6eazJ--81" value="pertenece" style="text;html=1;strokeColor=none;fillColor=none;align=center;verticalAlign=middle;whiteSpace=wrap;rounded=0;" vertex="1" parent="1">
          <mxGeometry x="544" y="-518.5" width="60" height="20" as="geometry" />
        </mxCell>
        <mxCell id="8gEljakdv8i_XS6eazJ--82" value="1...*" style="text;html=1;strokeColor=none;fillColor=none;align=center;verticalAlign=middle;whiteSpace=wrap;rounded=0;" vertex="1" parent="1">
          <mxGeometry x="640" y="-568.5" width="30" height="20" as="geometry" />
        </mxCell>
        <mxCell id="8gEljakdv8i_XS6eazJ--83" value="1" style="text;html=1;strokeColor=none;fillColor=none;align=center;verticalAlign=middle;whiteSpace=wrap;rounded=0;" vertex="1" parent="1">
          <mxGeometry x="460" y="-548.5" width="30" height="20" as="geometry" />
        </mxCell>
        <mxCell id="8gEljakdv8i_XS6eazJ--84" value="" style="endArrow=classic;html=1;rounded=0;" edge="1" parent="1">
          <mxGeometry width="50" height="50" relative="1" as="geometry">
            <mxPoint x="745" y="-598.5" as="sourcePoint" />
            <mxPoint x="745" y="-668.5" as="targetPoint" />
          </mxGeometry>
        </mxCell>
        <mxCell id="8gEljakdv8i_XS6eazJ--85" value="contiene" style="text;html=1;strokeColor=none;fillColor=none;align=center;verticalAlign=middle;whiteSpace=wrap;rounded=0;" vertex="1" parent="1">
          <mxGeometry x="740" y="-648.5" width="60" height="30" as="geometry" />
        </mxCell>
        <mxCell id="8gEljakdv8i_XS6eazJ--86" value="Pertenece" style="text;html=1;strokeColor=none;fillColor=none;align=center;verticalAlign=middle;whiteSpace=wrap;rounded=0;" vertex="1" parent="1">
          <mxGeometry x="644" y="-648.5" width="60" height="30" as="geometry" />
        </mxCell>
        <mxCell id="8gEljakdv8i_XS6eazJ--87" value="" style="endArrow=classic;html=1;rounded=0;" edge="1" parent="1">
          <mxGeometry width="50" height="50" relative="1" as="geometry">
            <mxPoint x="710" y="-668.5" as="sourcePoint" />
            <mxPoint x="710" y="-598.5" as="targetPoint" />
          </mxGeometry>
        </mxCell>
        <mxCell id="8gEljakdv8i_XS6eazJ--88" value="0...*" style="text;html=1;strokeColor=none;fillColor=none;align=center;verticalAlign=middle;whiteSpace=wrap;rounded=0;" vertex="1" parent="1">
          <mxGeometry x="730" y="-693.5" width="30" height="20" as="geometry" />
        </mxCell>
        <mxCell id="8gEljakdv8i_XS6eazJ--89" value="0...*" style="text;html=1;strokeColor=none;fillColor=none;align=center;verticalAlign=middle;whiteSpace=wrap;rounded=0;" vertex="1" parent="1">
          <mxGeometry x="700" y="-593.5" width="30" height="20" as="geometry" />
        </mxCell>
        <mxCell id="8gEljakdv8i_XS6eazJ--90" value="0...*" style="text;html=1;strokeColor=none;fillColor=none;align=center;verticalAlign=middle;whiteSpace=wrap;rounded=0;" vertex="1" parent="1">
          <mxGeometry x="370" y="-378.5" width="30" height="20" as="geometry" />
        </mxCell>
        <mxCell id="8gEljakdv8i_XS6eazJ--91" value="" style="endArrow=classic;html=1;rounded=0;" edge="1" parent="1">
          <mxGeometry width="50" height="50" relative="1" as="geometry">
            <mxPoint x="511" y="-349.5" as="sourcePoint" />
            <mxPoint x="561" y="-349.5" as="targetPoint" />
          </mxGeometry>
        </mxCell>
        <mxCell id="8gEljakdv8i_XS6eazJ--92" value="" style="endArrow=classic;html=1;rounded=0;" edge="1" parent="1">
          <mxGeometry width="50" height="50" relative="1" as="geometry">
            <mxPoint x="558" y="-319.6100000000001" as="sourcePoint" />
            <mxPoint x="498" y="-319.6100000000001" as="targetPoint" />
          </mxGeometry>
        </mxCell>
        <mxCell id="8gEljakdv8i_XS6eazJ--93" value="tiene&amp;nbsp;" style="text;html=1;strokeColor=none;fillColor=none;align=center;verticalAlign=middle;whiteSpace=wrap;rounded=0;" vertex="1" parent="1">
          <mxGeometry x="498" y="-378.5" width="60" height="30" as="geometry" />
        </mxCell>
        <mxCell id="8gEljakdv8i_XS6eazJ--94" value="pertenece" style="text;html=1;strokeColor=none;fillColor=none;align=center;verticalAlign=middle;whiteSpace=wrap;rounded=0;" vertex="1" parent="1">
          <mxGeometry x="506" y="-313.5" width="60" height="20" as="geometry" />
        </mxCell>
        <mxCell id="8gEljakdv8i_XS6eazJ--95" value="0...*" style="text;html=1;strokeColor=none;fillColor=none;align=center;verticalAlign=middle;whiteSpace=wrap;rounded=0;" vertex="1" parent="1">
          <mxGeometry x="457.5" y="-338.5" width="30" height="20" as="geometry" />
        </mxCell>
        <mxCell id="8gEljakdv8i_XS6eazJ--96" style="edgeStyle=orthogonalEdgeStyle;rounded=0;orthogonalLoop=1;jettySize=auto;html=1;entryX=1;entryY=0.5;entryDx=0;entryDy=0;endArrow=none;endFill=0;exitX=0;exitY=0.5;exitDx=0;exitDy=0;" edge="1" parent="1" source="8gEljakdv8i_XS6eazJ--64" target="8gEljakdv8i_XS6eazJ--32">
          <mxGeometry relative="1" as="geometry">
            <Array as="points" />
          </mxGeometry>
        </mxCell>
        <mxCell id="8gEljakdv8i_XS6eazJ--97" value="Paso Persona" style="rounded=0;whiteSpace=wrap;html=1;" vertex="1" parent="1">
          <mxGeometry x="660" y="-362.25" width="140" height="47.5" as="geometry" />
        </mxCell>
        <mxCell id="8gEljakdv8i_XS6eazJ--98" value="" style="endArrow=classic;html=1;rounded=0;" edge="1" parent="1">
          <mxGeometry width="50" height="50" relative="1" as="geometry">
            <mxPoint x="744.4099999999994" y="-418.5" as="sourcePoint" />
            <mxPoint x="744.4099999999994" y="-488.5" as="targetPoint" />
          </mxGeometry>
        </mxCell>
        <mxCell id="8gEljakdv8i_XS6eazJ--99" value="contiene" style="text;html=1;strokeColor=none;fillColor=none;align=center;verticalAlign=middle;whiteSpace=wrap;rounded=0;" vertex="1" parent="1">
          <mxGeometry x="748.5" y="-468.5" width="60" height="30" as="geometry" />
        </mxCell>
        <mxCell id="8gEljakdv8i_XS6eazJ--100" value="Pertenece" style="text;html=1;strokeColor=none;fillColor=none;align=center;verticalAlign=middle;whiteSpace=wrap;rounded=0;" vertex="1" parent="1">
          <mxGeometry x="652" y="-473.5" width="60" height="30" as="geometry" />
        </mxCell>
        <mxCell id="8gEljakdv8i_XS6eazJ--101" value="" style="endArrow=classic;html=1;rounded=0;" edge="1" parent="1">
          <mxGeometry width="50" height="50" relative="1" as="geometry">
            <mxPoint x="717.9999999999995" y="-493.5" as="sourcePoint" />
            <mxPoint x="717.9999999999995" y="-423.5" as="targetPoint" />
          </mxGeometry>
        </mxCell>
        <mxCell id="8gEljakdv8i_XS6eazJ--102" value="0...*" style="text;html=1;strokeColor=none;fillColor=none;align=center;verticalAlign=middle;whiteSpace=wrap;rounded=0;" vertex="1" parent="1">
          <mxGeometry x="738" y="-518.5" width="30" height="20" as="geometry" />
        </mxCell>
        <mxCell id="8gEljakdv8i_XS6eazJ--103" value="0...*" style="text;html=1;strokeColor=none;fillColor=none;align=center;verticalAlign=middle;whiteSpace=wrap;rounded=0;" vertex="1" parent="1">
          <mxGeometry x="700" y="-386" width="30" height="20" as="geometry" />
        </mxCell>
        <mxCell id="8gEljakdv8i_XS6eazJ--104" value="0...*" style="text;html=1;strokeColor=none;fillColor=none;align=center;verticalAlign=middle;whiteSpace=wrap;rounded=0;" vertex="1" parent="1">
          <mxGeometry x="629" y="-358.5" width="30" height="20" as="geometry" />
        </mxCell>
        <mxCell id="8gEljakdv8i_XS6eazJ--105" value="" style="endArrow=classic;html=1;rounded=0;" edge="1" parent="1">
          <mxGeometry width="50" height="50" relative="1" as="geometry">
            <mxPoint x="217.00000000000045" y="-328.5" as="sourcePoint" />
            <mxPoint x="267.00000000000045" y="-328.5" as="targetPoint" />
          </mxGeometry>
        </mxCell>
        <mxCell id="8gEljakdv8i_XS6eazJ--106" value="" style="endArrow=classic;html=1;rounded=0;" edge="1" parent="1">
          <mxGeometry width="50" height="50" relative="1" as="geometry">
            <mxPoint x="267" y="-349.7500000000001" as="sourcePoint" />
            <mxPoint x="206.5" y="-349.64" as="targetPoint" />
          </mxGeometry>
        </mxCell>
        <mxCell id="8gEljakdv8i_XS6eazJ--107" value="tiene&amp;nbsp;" style="text;html=1;strokeColor=none;fillColor=none;align=center;verticalAlign=middle;whiteSpace=wrap;rounded=0;" vertex="1" parent="1">
          <mxGeometry x="207" y="-386" width="60" height="30" as="geometry" />
        </mxCell>
        <mxCell id="8gEljakdv8i_XS6eazJ--108" value="pertenece" style="text;html=1;strokeColor=none;fillColor=none;align=center;verticalAlign=middle;whiteSpace=wrap;rounded=0;" vertex="1" parent="1">
          <mxGeometry x="207" y="-318.5" width="60" height="20" as="geometry" />
        </mxCell>
        <mxCell id="8gEljakdv8i_XS6eazJ--109" value="1" style="text;html=1;strokeColor=none;fillColor=none;align=center;verticalAlign=middle;whiteSpace=wrap;rounded=0;" vertex="1" parent="1">
          <mxGeometry x="145" y="-363.5" width="30" height="20" as="geometry" />
        </mxCell>
        <mxCell id="8gEljakdv8i_XS6eazJ--110" value="0...*" style="text;html=1;strokeColor=none;fillColor=none;align=center;verticalAlign=middle;whiteSpace=wrap;rounded=0;" vertex="1" parent="1">
          <mxGeometry x="305" y="-338.5" width="30" height="20" as="geometry" />
        </mxCell>
        <mxCell id="8gEljakdv8i_XS6eazJ--117" value="0...*" style="text;html=1;strokeColor=none;fillColor=none;align=center;verticalAlign=middle;whiteSpace=wrap;rounded=0;" vertex="1" parent="1">
          <mxGeometry x="370" y="-203" width="30" height="20" as="geometry" />
        </mxCell>
        <mxCell id="8gEljakdv8i_XS6eazJ--138" value="Tipo de Origami" style="rounded=0;whiteSpace=wrap;html=1;fillColor=#d5e8d4;strokeColor=#82b366;" vertex="1" parent="1">
          <mxGeometry x="1730" y="-810" width="120" height="40" as="geometry" />
        </mxCell>
        <mxCell id="8gEljakdv8i_XS6eazJ--139" value="Origami" style="rounded=0;whiteSpace=wrap;html=1;fillColor=#d5e8d4;strokeColor=#82b366;" vertex="1" parent="1">
          <mxGeometry x="2000" y="-810" width="110" height="40" as="geometry" />
        </mxCell>
        <mxCell id="8gEljakdv8i_XS6eazJ--140" value="Estado actual" style="rounded=0;whiteSpace=wrap;html=1;" vertex="1" parent="1">
          <mxGeometry x="2690" y="-333.75" width="140" height="47.5" as="geometry" />
        </mxCell>
        <mxCell id="8gEljakdv8i_XS6eazJ--141" value="" style="endArrow=none;html=1;rounded=0;entryX=1;entryY=0.5;entryDx=0;entryDy=0;exitX=0;exitY=0.5;exitDx=0;exitDy=0;" edge="1" parent="1" source="8gEljakdv8i_XS6eazJ--139" target="8gEljakdv8i_XS6eazJ--138">
          <mxGeometry width="50" height="50" relative="1" as="geometry">
            <mxPoint x="2120" y="-640" as="sourcePoint" />
            <mxPoint x="2170" y="-690" as="targetPoint" />
          </mxGeometry>
        </mxCell>
        <mxCell id="8gEljakdv8i_XS6eazJ--142" style="edgeStyle=orthogonalEdgeStyle;rounded=0;orthogonalLoop=1;jettySize=auto;html=1;entryX=0;entryY=0.5;entryDx=0;entryDy=0;endArrow=none;endFill=0;" edge="1" parent="1" source="8gEljakdv8i_XS6eazJ--143" target="8gEljakdv8i_XS6eazJ--164">
          <mxGeometry relative="1" as="geometry">
            <Array as="points">
              <mxPoint x="2060" y="-141" />
            </Array>
          </mxGeometry>
        </mxCell>
        <mxCell id="8gEljakdv8i_XS6eazJ--143" value="Persona" style="rounded=0;whiteSpace=wrap;html=1;" vertex="1" parent="1">
          <mxGeometry x="1760" y="-156" width="120" height="30" as="geometry" />
        </mxCell>
        <mxCell id="8gEljakdv8i_XS6eazJ--144" value="" style="endArrow=none;html=1;rounded=0;exitX=0.5;exitY=1;exitDx=0;exitDy=0;entryX=0.5;entryY=0;entryDx=0;entryDy=0;" edge="1" parent="1" source="8gEljakdv8i_XS6eazJ--139" target="8gEljakdv8i_XS6eazJ--146">
          <mxGeometry width="50" height="50" relative="1" as="geometry">
            <mxPoint x="2400" y="-640" as="sourcePoint" />
            <mxPoint x="2050" y="-670" as="targetPoint" />
          </mxGeometry>
        </mxCell>
        <mxCell id="8gEljakdv8i_XS6eazJ--145" style="edgeStyle=orthogonalEdgeStyle;rounded=0;orthogonalLoop=1;jettySize=auto;html=1;endArrow=none;endFill=0;" edge="1" parent="1" source="8gEljakdv8i_XS6eazJ--146" target="8gEljakdv8i_XS6eazJ--168">
          <mxGeometry relative="1" as="geometry">
            <mxPoint x="2170" y="-520" as="targetPoint" />
          </mxGeometry>
        </mxCell>
        <mxCell id="8gEljakdv8i_XS6eazJ--146" value="Tutorial&amp;nbsp; &amp;nbsp;Origami" style="rounded=0;whiteSpace=wrap;html=1;" vertex="1" parent="1">
          <mxGeometry x="1995" y="-540" width="125" height="40" as="geometry" />
        </mxCell>
        <mxCell id="8gEljakdv8i_XS6eazJ--147" value="" style="endArrow=none;html=1;rounded=0;entryX=0.5;entryY=1;entryDx=0;entryDy=0;exitX=0.5;exitY=0;exitDx=0;exitDy=0;" edge="1" parent="1" source="8gEljakdv8i_XS6eazJ--164" target="8gEljakdv8i_XS6eazJ--172">
          <mxGeometry width="50" height="50" relative="1" as="geometry">
            <mxPoint x="2058" y="-180" as="sourcePoint" />
            <mxPoint x="2160" y="-620" as="targetPoint" />
          </mxGeometry>
        </mxCell>
        <mxCell id="8gEljakdv8i_XS6eazJ--148" value="" style="endArrow=classic;html=1;rounded=0;" edge="1" parent="1">
          <mxGeometry width="50" height="50" relative="1" as="geometry">
            <mxPoint x="1895" y="-820" as="sourcePoint" />
            <mxPoint x="1945" y="-820" as="targetPoint" />
          </mxGeometry>
        </mxCell>
        <mxCell id="8gEljakdv8i_XS6eazJ--149" value="" style="endArrow=classic;html=1;rounded=0;" edge="1" parent="1">
          <mxGeometry width="50" height="50" relative="1" as="geometry">
            <mxPoint x="1950" y="-755.8299999999999" as="sourcePoint" />
            <mxPoint x="1890" y="-755.8299999999999" as="targetPoint" />
          </mxGeometry>
        </mxCell>
        <mxCell id="8gEljakdv8i_XS6eazJ--150" value="" style="endArrow=classic;html=1;rounded=0;" edge="1" parent="1">
          <mxGeometry width="50" height="50" relative="1" as="geometry">
            <mxPoint x="2074.5" y="-600" as="sourcePoint" />
            <mxPoint x="2074.5" y="-690" as="targetPoint" />
          </mxGeometry>
        </mxCell>
        <mxCell id="8gEljakdv8i_XS6eazJ--151" value="tiene&amp;nbsp;" style="text;html=1;strokeColor=none;fillColor=none;align=center;verticalAlign=middle;whiteSpace=wrap;rounded=0;" vertex="1" parent="1">
          <mxGeometry x="1895" y="-820" width="60" height="30" as="geometry" />
        </mxCell>
        <mxCell id="8gEljakdv8i_XS6eazJ--152" value="0...*" style="text;html=1;strokeColor=none;fillColor=none;align=center;verticalAlign=middle;whiteSpace=wrap;rounded=0;" vertex="1" parent="1">
          <mxGeometry x="1975" y="-810" width="30" height="20" as="geometry" />
        </mxCell>
        <mxCell id="8gEljakdv8i_XS6eazJ--153" value="" style="endArrow=classic;html=1;rounded=0;" edge="1" parent="1">
          <mxGeometry width="50" height="50" relative="1" as="geometry">
            <mxPoint x="2025" y="-680" as="sourcePoint" />
            <mxPoint x="2025" y="-580" as="targetPoint" />
          </mxGeometry>
        </mxCell>
        <mxCell id="8gEljakdv8i_XS6eazJ--154" value="pertenece" style="text;html=1;strokeColor=none;fillColor=none;align=center;verticalAlign=middle;whiteSpace=wrap;rounded=0;" vertex="1" parent="1">
          <mxGeometry x="1895" y="-785" width="60" height="20" as="geometry" />
        </mxCell>
        <mxCell id="8gEljakdv8i_XS6eazJ--155" value="1" style="text;html=1;strokeColor=none;fillColor=none;align=center;verticalAlign=middle;whiteSpace=wrap;rounded=0;" vertex="1" parent="1">
          <mxGeometry x="1855" y="-785" width="30" height="20" as="geometry" />
        </mxCell>
        <mxCell id="8gEljakdv8i_XS6eazJ--156" value="es para" style="text;html=1;strokeColor=none;fillColor=none;align=center;verticalAlign=middle;whiteSpace=wrap;rounded=0;" vertex="1" parent="1">
          <mxGeometry x="2050" y="-600" width="60" height="30" as="geometry" />
        </mxCell>
        <mxCell id="8gEljakdv8i_XS6eazJ--157" value="1" style="text;html=1;strokeColor=none;fillColor=none;align=center;verticalAlign=middle;whiteSpace=wrap;rounded=0;" vertex="1" parent="1">
          <mxGeometry x="2010" y="-560" width="30" height="20" as="geometry" />
        </mxCell>
        <mxCell id="8gEljakdv8i_XS6eazJ--158" value="se puede hacer&amp;nbsp;" style="text;html=1;strokeColor=none;fillColor=none;align=center;verticalAlign=middle;whiteSpace=wrap;rounded=0;" vertex="1" parent="1">
          <mxGeometry x="1990" y="-725" width="60" height="20" as="geometry" />
        </mxCell>
        <mxCell id="8gEljakdv8i_XS6eazJ--159" value="1" style="text;html=1;strokeColor=none;fillColor=none;align=center;verticalAlign=middle;whiteSpace=wrap;rounded=0;" vertex="1" parent="1">
          <mxGeometry x="2060" y="-765" width="30" height="20" as="geometry" />
        </mxCell>
        <mxCell id="8gEljakdv8i_XS6eazJ--160" value="" style="endArrow=classic;html=1;rounded=0;" edge="1" parent="1">
          <mxGeometry width="50" height="50" relative="1" as="geometry">
            <mxPoint x="2081" y="-187" as="sourcePoint" />
            <mxPoint x="2081" y="-257" as="targetPoint" />
          </mxGeometry>
        </mxCell>
        <mxCell id="8gEljakdv8i_XS6eazJ--161" value="" style="endArrow=classic;html=1;rounded=0;" edge="1" parent="1">
          <mxGeometry width="50" height="50" relative="1" as="geometry">
            <mxPoint x="2040" y="-259.99999999999955" as="sourcePoint" />
            <mxPoint x="2040" y="-189.99999999999955" as="targetPoint" />
          </mxGeometry>
        </mxCell>
        <mxCell id="8gEljakdv8i_XS6eazJ--162" value="Pertenece" style="text;html=1;strokeColor=none;fillColor=none;align=center;verticalAlign=middle;whiteSpace=wrap;rounded=0;" vertex="1" parent="1">
          <mxGeometry x="1975" y="-240" width="60" height="30" as="geometry" />
        </mxCell>
        <mxCell id="8gEljakdv8i_XS6eazJ--163" value="tiene&amp;nbsp;" style="text;html=1;strokeColor=none;fillColor=none;align=center;verticalAlign=middle;whiteSpace=wrap;rounded=0;" vertex="1" parent="1">
          <mxGeometry x="2076" y="-247" width="60" height="30" as="geometry" />
        </mxCell>
        <mxCell id="8gEljakdv8i_XS6eazJ--164" value="HIstorial" style="rounded=0;whiteSpace=wrap;html=1;" vertex="1" parent="1">
          <mxGeometry x="2000" y="-163" width="120" height="40" as="geometry" />
        </mxCell>
        <mxCell id="8gEljakdv8i_XS6eazJ--165" value="Recurso" style="rounded=0;whiteSpace=wrap;html=1;" vertex="1" parent="1">
          <mxGeometry x="2330" y="-705" width="120" height="40" as="geometry" />
        </mxCell>
        <mxCell id="8gEljakdv8i_XS6eazJ--166" style="edgeStyle=orthogonalEdgeStyle;rounded=0;orthogonalLoop=1;jettySize=auto;html=1;endArrow=none;endFill=0;" edge="1" parent="1" source="8gEljakdv8i_XS6eazJ--168" target="8gEljakdv8i_XS6eazJ--165">
          <mxGeometry relative="1" as="geometry" />
        </mxCell>
        <mxCell id="8gEljakdv8i_XS6eazJ--167" style="edgeStyle=orthogonalEdgeStyle;rounded=0;orthogonalLoop=1;jettySize=auto;html=1;endArrow=none;endFill=0;" edge="1" parent="1" source="8gEljakdv8i_XS6eazJ--168" target="8gEljakdv8i_XS6eazJ--205">
          <mxGeometry relative="1" as="geometry" />
        </mxCell>
        <mxCell id="8gEljakdv8i_XS6eazJ--168" value="Paso Tutorial" style="rounded=0;whiteSpace=wrap;html=1;" vertex="1" parent="1">
          <mxGeometry x="2330" y="-540" width="120" height="40" as="geometry" />
        </mxCell>
        <mxCell id="8gEljakdv8i_XS6eazJ--169" style="edgeStyle=orthogonalEdgeStyle;rounded=0;orthogonalLoop=1;jettySize=auto;html=1;exitX=0.5;exitY=0;exitDx=0;exitDy=0;entryX=0.5;entryY=1;entryDx=0;entryDy=0;endArrow=none;endFill=0;" edge="1" parent="1" source="8gEljakdv8i_XS6eazJ--172" target="8gEljakdv8i_XS6eazJ--146">
          <mxGeometry relative="1" as="geometry" />
        </mxCell>
        <mxCell id="8gEljakdv8i_XS6eazJ--170" style="edgeStyle=orthogonalEdgeStyle;rounded=0;orthogonalLoop=1;jettySize=auto;html=1;exitX=0.5;exitY=0;exitDx=0;exitDy=0;entryX=1;entryY=1;entryDx=0;entryDy=0;endArrow=none;endFill=0;" edge="1" parent="1" source="8gEljakdv8i_XS6eazJ--172" target="8gEljakdv8i_XS6eazJ--198">
          <mxGeometry relative="1" as="geometry" />
        </mxCell>
        <mxCell id="8gEljakdv8i_XS6eazJ--171" style="edgeStyle=orthogonalEdgeStyle;rounded=0;orthogonalLoop=1;jettySize=auto;html=1;endArrow=none;endFill=0;" edge="1" parent="1" source="8gEljakdv8i_XS6eazJ--172" target="8gEljakdv8i_XS6eazJ--205">
          <mxGeometry relative="1" as="geometry" />
        </mxCell>
        <mxCell id="8gEljakdv8i_XS6eazJ--172" value="Tutorial persona" style="rounded=0;whiteSpace=wrap;html=1;" vertex="1" parent="1">
          <mxGeometry x="1997.5" y="-330" width="120" height="40" as="geometry" />
        </mxCell>
        <mxCell id="8gEljakdv8i_XS6eazJ--173" value="0...*" style="text;html=1;strokeColor=none;fillColor=none;align=center;verticalAlign=middle;whiteSpace=wrap;rounded=0;" vertex="1" parent="1">
          <mxGeometry x="1790" y="-180" width="30" height="20" as="geometry" />
        </mxCell>
        <mxCell id="8gEljakdv8i_XS6eazJ--174" value="0...*" style="text;html=1;strokeColor=none;fillColor=none;align=center;verticalAlign=middle;whiteSpace=wrap;rounded=0;" vertex="1" parent="1">
          <mxGeometry x="2065" y="-290" width="30" height="20" as="geometry" />
        </mxCell>
        <mxCell id="8gEljakdv8i_XS6eazJ--175" value="" style="endArrow=classic;html=1;rounded=0;" edge="1" parent="1">
          <mxGeometry width="50" height="50" relative="1" as="geometry">
            <mxPoint x="2085" y="-389.99999999999955" as="sourcePoint" />
            <mxPoint x="2085" y="-459.99999999999955" as="targetPoint" />
          </mxGeometry>
        </mxCell>
        <mxCell id="8gEljakdv8i_XS6eazJ--176" value="contiene" style="text;html=1;strokeColor=none;fillColor=none;align=center;verticalAlign=middle;whiteSpace=wrap;rounded=0;" vertex="1" parent="1">
          <mxGeometry x="2080" y="-440" width="60" height="30" as="geometry" />
        </mxCell>
        <mxCell id="8gEljakdv8i_XS6eazJ--177" value="Pertenece" style="text;html=1;strokeColor=none;fillColor=none;align=center;verticalAlign=middle;whiteSpace=wrap;rounded=0;" vertex="1" parent="1">
          <mxGeometry x="1970" y="-440" width="60" height="30" as="geometry" />
        </mxCell>
        <mxCell id="8gEljakdv8i_XS6eazJ--178" value="" style="endArrow=classic;html=1;rounded=0;" edge="1" parent="1">
          <mxGeometry width="50" height="50" relative="1" as="geometry">
            <mxPoint x="2040" y="-449.99999999999955" as="sourcePoint" />
            <mxPoint x="2040" y="-379.99999999999955" as="targetPoint" />
          </mxGeometry>
        </mxCell>
        <mxCell id="8gEljakdv8i_XS6eazJ--179" value="0...*" style="text;html=1;strokeColor=none;fillColor=none;align=center;verticalAlign=middle;whiteSpace=wrap;rounded=0;" vertex="1" parent="1">
          <mxGeometry x="2065" y="-500" width="30" height="20" as="geometry" />
        </mxCell>
        <mxCell id="8gEljakdv8i_XS6eazJ--180" value="enseÃ±a" style="text;html=1;strokeColor=none;fillColor=none;align=center;verticalAlign=middle;whiteSpace=wrap;rounded=0;" vertex="1" parent="1">
          <mxGeometry x="1730" y="-367.5" width="60" height="30" as="geometry" />
        </mxCell>
        <mxCell id="8gEljakdv8i_XS6eazJ--181" value="" style="endArrow=classic;html=1;rounded=0;" edge="1" parent="1">
          <mxGeometry width="50" height="50" relative="1" as="geometry">
            <mxPoint x="1795" y="-379.99999999999955" as="sourcePoint" />
            <mxPoint x="1795" y="-309.99999999999955" as="targetPoint" />
          </mxGeometry>
        </mxCell>
        <mxCell id="8gEljakdv8i_XS6eazJ--182" value="" style="endArrow=classic;html=1;rounded=0;" edge="1" parent="1">
          <mxGeometry width="50" height="50" relative="1" as="geometry">
            <mxPoint x="1835" y="-319.99999999999955" as="sourcePoint" />
            <mxPoint x="1835" y="-389.99999999999955" as="targetPoint" />
          </mxGeometry>
        </mxCell>
        <mxCell id="8gEljakdv8i_XS6eazJ--183" value="visualiza" style="text;html=1;strokeColor=none;fillColor=none;align=center;verticalAlign=middle;whiteSpace=wrap;rounded=0;" vertex="1" parent="1">
          <mxGeometry x="1830" y="-370" width="60" height="30" as="geometry" />
        </mxCell>
        <mxCell id="8gEljakdv8i_XS6eazJ--184" value="0...*" style="text;html=1;strokeColor=none;fillColor=none;align=center;verticalAlign=middle;whiteSpace=wrap;rounded=0;" vertex="1" parent="1">
          <mxGeometry x="1969.5" y="-159" width="30" height="20" as="geometry" />
        </mxCell>
        <mxCell id="8gEljakdv8i_XS6eazJ--185" value="1" style="text;html=1;strokeColor=none;fillColor=none;align=center;verticalAlign=middle;whiteSpace=wrap;rounded=0;" vertex="1" parent="1">
          <mxGeometry x="1967.5" y="-520" width="30" height="20" as="geometry" />
        </mxCell>
        <mxCell id="8gEljakdv8i_XS6eazJ--186" value="" style="endArrow=classic;html=1;rounded=0;" edge="1" parent="1">
          <mxGeometry width="50" height="50" relative="1" as="geometry">
            <mxPoint x="2217" y="-541" as="sourcePoint" />
            <mxPoint x="2267" y="-541" as="targetPoint" />
          </mxGeometry>
        </mxCell>
        <mxCell id="8gEljakdv8i_XS6eazJ--187" value="" style="endArrow=classic;html=1;rounded=0;" edge="1" parent="1">
          <mxGeometry width="50" height="50" relative="1" as="geometry">
            <mxPoint x="2259" y="-501.1099999999997" as="sourcePoint" />
            <mxPoint x="2199" y="-501.1099999999997" as="targetPoint" />
          </mxGeometry>
        </mxCell>
        <mxCell id="8gEljakdv8i_XS6eazJ--188" value="tiene&amp;nbsp;" style="text;html=1;strokeColor=none;fillColor=none;align=center;verticalAlign=middle;whiteSpace=wrap;rounded=0;" vertex="1" parent="1">
          <mxGeometry x="2204" y="-570" width="60" height="30" as="geometry" />
        </mxCell>
        <mxCell id="8gEljakdv8i_XS6eazJ--189" value="pertenece" style="text;html=1;strokeColor=none;fillColor=none;align=center;verticalAlign=middle;whiteSpace=wrap;rounded=0;" vertex="1" parent="1">
          <mxGeometry x="2204" y="-490" width="60" height="20" as="geometry" />
        </mxCell>
        <mxCell id="8gEljakdv8i_XS6eazJ--190" value="1...*" style="text;html=1;strokeColor=none;fillColor=none;align=center;verticalAlign=middle;whiteSpace=wrap;rounded=0;" vertex="1" parent="1">
          <mxGeometry x="2300" y="-540" width="30" height="20" as="geometry" />
        </mxCell>
        <mxCell id="8gEljakdv8i_XS6eazJ--191" value="1" style="text;html=1;strokeColor=none;fillColor=none;align=center;verticalAlign=middle;whiteSpace=wrap;rounded=0;" vertex="1" parent="1">
          <mxGeometry x="2120" y="-520" width="30" height="20" as="geometry" />
        </mxCell>
        <mxCell id="8gEljakdv8i_XS6eazJ--192" value="" style="endArrow=classic;html=1;rounded=0;" edge="1" parent="1">
          <mxGeometry width="50" height="50" relative="1" as="geometry">
            <mxPoint x="2405" y="-570" as="sourcePoint" />
            <mxPoint x="2405" y="-640" as="targetPoint" />
          </mxGeometry>
        </mxCell>
        <mxCell id="8gEljakdv8i_XS6eazJ--193" value="contiene" style="text;html=1;strokeColor=none;fillColor=none;align=center;verticalAlign=middle;whiteSpace=wrap;rounded=0;" vertex="1" parent="1">
          <mxGeometry x="2400" y="-620" width="60" height="30" as="geometry" />
        </mxCell>
        <mxCell id="8gEljakdv8i_XS6eazJ--194" value="Pertenece" style="text;html=1;strokeColor=none;fillColor=none;align=center;verticalAlign=middle;whiteSpace=wrap;rounded=0;" vertex="1" parent="1">
          <mxGeometry x="2304" y="-620" width="60" height="30" as="geometry" />
        </mxCell>
        <mxCell id="8gEljakdv8i_XS6eazJ--195" value="" style="endArrow=classic;html=1;rounded=0;" edge="1" parent="1">
          <mxGeometry width="50" height="50" relative="1" as="geometry">
            <mxPoint x="2370" y="-640" as="sourcePoint" />
            <mxPoint x="2370" y="-570" as="targetPoint" />
          </mxGeometry>
        </mxCell>
        <mxCell id="8gEljakdv8i_XS6eazJ--196" value="0...*" style="text;html=1;strokeColor=none;fillColor=none;align=center;verticalAlign=middle;whiteSpace=wrap;rounded=0;" vertex="1" parent="1">
          <mxGeometry x="2390" y="-665" width="30" height="20" as="geometry" />
        </mxCell>
        <mxCell id="8gEljakdv8i_XS6eazJ--197" value="0...*" style="text;html=1;strokeColor=none;fillColor=none;align=center;verticalAlign=middle;whiteSpace=wrap;rounded=0;" vertex="1" parent="1">
          <mxGeometry x="2360" y="-565" width="30" height="20" as="geometry" />
        </mxCell>
        <mxCell id="8gEljakdv8i_XS6eazJ--198" value="0...*" style="text;html=1;strokeColor=none;fillColor=none;align=center;verticalAlign=middle;whiteSpace=wrap;rounded=0;" vertex="1" parent="1">
          <mxGeometry x="2030" y="-350" width="30" height="20" as="geometry" />
        </mxCell>
        <mxCell id="8gEljakdv8i_XS6eazJ--199" value="" style="endArrow=classic;html=1;rounded=0;" edge="1" parent="1">
          <mxGeometry width="50" height="50" relative="1" as="geometry">
            <mxPoint x="2171" y="-321" as="sourcePoint" />
            <mxPoint x="2221" y="-321" as="targetPoint" />
          </mxGeometry>
        </mxCell>
        <mxCell id="8gEljakdv8i_XS6eazJ--200" value="" style="endArrow=classic;html=1;rounded=0;" edge="1" parent="1">
          <mxGeometry width="50" height="50" relative="1" as="geometry">
            <mxPoint x="2218" y="-291.1099999999997" as="sourcePoint" />
            <mxPoint x="2158" y="-291.1099999999997" as="targetPoint" />
          </mxGeometry>
        </mxCell>
        <mxCell id="8gEljakdv8i_XS6eazJ--201" value="tiene&amp;nbsp;" style="text;html=1;strokeColor=none;fillColor=none;align=center;verticalAlign=middle;whiteSpace=wrap;rounded=0;" vertex="1" parent="1">
          <mxGeometry x="2158" y="-350" width="60" height="30" as="geometry" />
        </mxCell>
        <mxCell id="8gEljakdv8i_XS6eazJ--202" value="pertenece" style="text;html=1;strokeColor=none;fillColor=none;align=center;verticalAlign=middle;whiteSpace=wrap;rounded=0;" vertex="1" parent="1">
          <mxGeometry x="2166" y="-285" width="60" height="20" as="geometry" />
        </mxCell>
        <mxCell id="8gEljakdv8i_XS6eazJ--203" value="0...*" style="text;html=1;strokeColor=none;fillColor=none;align=center;verticalAlign=middle;whiteSpace=wrap;rounded=0;" vertex="1" parent="1">
          <mxGeometry x="2117.5" y="-310" width="30" height="20" as="geometry" />
        </mxCell>
        <mxCell id="8gEljakdv8i_XS6eazJ--204" style="edgeStyle=orthogonalEdgeStyle;rounded=0;orthogonalLoop=1;jettySize=auto;html=1;entryX=0;entryY=0.5;entryDx=0;entryDy=0;endArrow=none;endFill=0;" edge="1" parent="1" source="8gEljakdv8i_XS6eazJ--205" target="8gEljakdv8i_XS6eazJ--140">
          <mxGeometry relative="1" as="geometry">
            <Array as="points">
              <mxPoint x="2580" y="-310" />
            </Array>
          </mxGeometry>
        </mxCell>
        <mxCell id="8gEljakdv8i_XS6eazJ--205" value="Paso Persona" style="rounded=0;whiteSpace=wrap;html=1;" vertex="1" parent="1">
          <mxGeometry x="2320" y="-333.75" width="140" height="47.5" as="geometry" />
        </mxCell>
        <mxCell id="8gEljakdv8i_XS6eazJ--206" value="" style="endArrow=classic;html=1;rounded=0;" edge="1" parent="1">
          <mxGeometry width="50" height="50" relative="1" as="geometry">
            <mxPoint x="2404.41" y="-389.99999999999955" as="sourcePoint" />
            <mxPoint x="2404.41" y="-459.99999999999955" as="targetPoint" />
          </mxGeometry>
        </mxCell>
        <mxCell id="8gEljakdv8i_XS6eazJ--207" value="contiene" style="text;html=1;strokeColor=none;fillColor=none;align=center;verticalAlign=middle;whiteSpace=wrap;rounded=0;" vertex="1" parent="1">
          <mxGeometry x="2408.5" y="-440" width="60" height="30" as="geometry" />
        </mxCell>
        <mxCell id="8gEljakdv8i_XS6eazJ--208" value="Pertenece" style="text;html=1;strokeColor=none;fillColor=none;align=center;verticalAlign=middle;whiteSpace=wrap;rounded=0;" vertex="1" parent="1">
          <mxGeometry x="2312" y="-445" width="60" height="30" as="geometry" />
        </mxCell>
        <mxCell id="8gEljakdv8i_XS6eazJ--209" value="" style="endArrow=classic;html=1;rounded=0;" edge="1" parent="1">
          <mxGeometry width="50" height="50" relative="1" as="geometry">
            <mxPoint x="2378" y="-464.99999999999955" as="sourcePoint" />
            <mxPoint x="2378" y="-394.99999999999955" as="targetPoint" />
          </mxGeometry>
        </mxCell>
        <mxCell id="8gEljakdv8i_XS6eazJ--210" value="0...*" style="text;html=1;strokeColor=none;fillColor=none;align=center;verticalAlign=middle;whiteSpace=wrap;rounded=0;" vertex="1" parent="1">
          <mxGeometry x="2398" y="-490" width="30" height="20" as="geometry" />
        </mxCell>
        <mxCell id="8gEljakdv8i_XS6eazJ--211" value="0...*" style="text;html=1;strokeColor=none;fillColor=none;align=center;verticalAlign=middle;whiteSpace=wrap;rounded=0;" vertex="1" parent="1">
          <mxGeometry x="2360" y="-357.5" width="30" height="20" as="geometry" />
        </mxCell>
        <mxCell id="8gEljakdv8i_XS6eazJ--212" value="0...*" style="text;html=1;strokeColor=none;fillColor=none;align=center;verticalAlign=middle;whiteSpace=wrap;rounded=0;" vertex="1" parent="1">
          <mxGeometry x="2289" y="-330" width="30" height="20" as="geometry" />
        </mxCell>
        <mxCell id="8gEljakdv8i_XS6eazJ--213" value="" style="endArrow=classic;html=1;rounded=0;" edge="1" parent="1">
          <mxGeometry width="50" height="50" relative="1" as="geometry">
            <mxPoint x="2529.5" y="-321" as="sourcePoint" />
            <mxPoint x="2579.5" y="-321" as="targetPoint" />
          </mxGeometry>
        </mxCell>
        <mxCell id="8gEljakdv8i_XS6eazJ--214" value="" style="endArrow=classic;html=1;rounded=0;" edge="1" parent="1">
          <mxGeometry width="50" height="50" relative="1" as="geometry">
            <mxPoint x="2576.5" y="-291.1099999999997" as="sourcePoint" />
            <mxPoint x="2516.5" y="-291.1099999999997" as="targetPoint" />
          </mxGeometry>
        </mxCell>
        <mxCell id="8gEljakdv8i_XS6eazJ--215" value="tiene&amp;nbsp;" style="text;html=1;strokeColor=none;fillColor=none;align=center;verticalAlign=middle;whiteSpace=wrap;rounded=0;" vertex="1" parent="1">
          <mxGeometry x="2516.5" y="-350" width="60" height="30" as="geometry" />
        </mxCell>
        <mxCell id="8gEljakdv8i_XS6eazJ--216" value="pertenece" style="text;html=1;strokeColor=none;fillColor=none;align=center;verticalAlign=middle;whiteSpace=wrap;rounded=0;" vertex="1" parent="1">
          <mxGeometry x="2524.5" y="-285" width="60" height="20" as="geometry" />
        </mxCell>
        <mxCell id="8gEljakdv8i_XS6eazJ--217" value="0...*" style="text;html=1;strokeColor=none;fillColor=none;align=center;verticalAlign=middle;whiteSpace=wrap;rounded=0;" vertex="1" parent="1">
          <mxGeometry x="2476" y="-310" width="30" height="20" as="geometry" />
        </mxCell>
        <mxCell id="8gEljakdv8i_XS6eazJ--218" value="0...*" style="text;html=1;strokeColor=none;fillColor=none;align=center;verticalAlign=middle;whiteSpace=wrap;rounded=0;" vertex="1" parent="1">
          <mxGeometry x="2647.5" y="-330" width="30" height="20" as="geometry" />
        </mxCell>
        <mxCell id="8gEljakdv8i_XS6eazJ--219" value="" style="endArrow=none;html=1;rounded=0;exitX=1;exitY=0.25;exitDx=0;exitDy=0;" edge="1" parent="1" source="8gEljakdv8i_XS6eazJ--185">
          <mxGeometry width="50" height="50" relative="1" as="geometry">
            <mxPoint x="1820" y="-480" as="sourcePoint" />
            <mxPoint x="1823" y="-159.99999999999955" as="targetPoint" />
            <Array as="points">
              <mxPoint x="1820" y="-515" />
            </Array>
          </mxGeometry>
        </mxCell>
        <mxCell id="8gEljakdv8i_XS6eazJ--220" value="" style="endArrow=classic;html=1;rounded=0;" edge="1" parent="1">
          <mxGeometry width="50" height="50" relative="1" as="geometry">
            <mxPoint x="1923" y="-153.00000000000045" as="sourcePoint" />
            <mxPoint x="1973" y="-153.00000000000045" as="targetPoint" />
          </mxGeometry>
        </mxCell>
        <mxCell id="8gEljakdv8i_XS6eazJ--221" value="" style="endArrow=classic;html=1;rounded=0;" edge="1" parent="1">
          <mxGeometry width="50" height="50" relative="1" as="geometry">
            <mxPoint x="1970" y="-123.11000000000013" as="sourcePoint" />
            <mxPoint x="1910" y="-123.11000000000013" as="targetPoint" />
          </mxGeometry>
        </mxCell>
        <mxCell id="8gEljakdv8i_XS6eazJ--222" value="tiene&amp;nbsp;" style="text;html=1;strokeColor=none;fillColor=none;align=center;verticalAlign=middle;whiteSpace=wrap;rounded=0;" vertex="1" parent="1">
          <mxGeometry x="1910" y="-182" width="60" height="30" as="geometry" />
        </mxCell>
        <mxCell id="8gEljakdv8i_XS6eazJ--223" value="pertenece" style="text;html=1;strokeColor=none;fillColor=none;align=center;verticalAlign=middle;whiteSpace=wrap;rounded=0;" vertex="1" parent="1">
          <mxGeometry x="1918" y="-117" width="60" height="20" as="geometry" />
        </mxCell>
        <mxCell id="8gEljakdv8i_XS6eazJ--224" value="1" style="text;html=1;strokeColor=none;fillColor=none;align=center;verticalAlign=middle;whiteSpace=wrap;rounded=0;" vertex="1" parent="1">
          <mxGeometry x="1882" y="-139" width="30" height="20" as="geometry" />
        </mxCell>
        <mxCell id="8gEljakdv8i_XS6eazJ--225" value="0...*" style="text;html=1;strokeColor=none;fillColor=none;align=center;verticalAlign=middle;whiteSpace=wrap;rounded=0;" vertex="1" parent="1">
          <mxGeometry x="2030" y="-183" width="30" height="20" as="geometry" />
        </mxCell>
      </root>
    </mxGraphModel>
  </diagram>
</mxfile>
